<svg xmlns="http://www.w3.org/2000/svg" width="218" height="67" viewBox="0 0 218 67" fill="none"><rect y="48" width="66" height="19" rx="4" fill="white"></rect><circle cx="32.9999" cy="29.9999" r="29.9999" fill="white"></circle><circle cx="32.9979" cy="29.9999" r="28.1249" fill="#FF581B"></circle><path fill-rule="evenodd" clip-rule="evenodd" d="M35.4816 7.16155C34.2229 6.36282 32.6162 6.36282 31.3575 7.16155C30.4603 7.73087 29.3676 7.90393 28.3384 7.63972C26.8945 7.26904 25.3664 7.76555 24.4161 8.91415C23.7388 9.73285 22.7531 10.2351 21.6926 10.3018C20.2048 10.3955 18.9049 11.3399 18.3561 12.726C17.9649 13.7139 17.1827 14.4962 16.1947 14.8874C14.8087 15.4362 13.8643 16.7361 13.7706 18.2239C13.7038 19.2843 13.2016 20.27 12.3829 20.9474C11.2343 21.8976 10.7378 23.4258 11.1085 24.8697C11.3727 25.8989 11.1996 26.9915 10.6303 27.8887C9.83157 29.1474 9.83157 30.7542 10.6303 32.0128C11.1996 32.91 11.3727 34.0027 11.1085 35.0319C10.7378 36.4758 11.2343 38.0039 12.3829 38.9542C13.2016 39.6315 13.7038 40.6172 13.7706 41.6777C13.8643 43.1655 14.8087 44.4654 16.1947 45.0142C17.1827 45.4054 17.9649 46.1876 18.3561 47.1756C18.9049 48.5616 20.2048 49.506 21.6926 49.5997C22.7531 49.6665 23.7388 50.1687 24.4161 50.9874C25.3664 52.136 26.8945 52.6325 28.3384 52.2618C29.3676 51.9976 30.4603 52.1707 31.3575 52.74C32.6162 53.5387 34.2229 53.5387 35.4816 52.74C36.3788 52.1707 37.4714 51.9976 38.5006 52.2618C39.9446 52.6325 41.4727 52.136 42.4229 50.9874C43.1003 50.1687 44.086 49.6665 45.1465 49.5997C46.6342 49.506 47.9341 48.5616 48.4829 47.1756C48.8741 46.1876 49.6564 45.4054 50.6443 45.0142C52.0304 44.4654 52.9748 43.1655 53.0685 41.6777C53.1352 40.6172 53.6375 39.6315 54.4562 38.9542C55.6048 38.0039 56.1013 36.4758 55.7306 35.0319C55.4664 34.0027 55.6394 32.91 56.2088 32.0128C57.0075 30.7542 57.0075 29.1474 56.2088 27.8887C55.6394 26.9915 55.4664 25.8989 55.7306 24.8697C56.1013 23.4258 55.6048 21.8976 54.4562 20.9474C53.6375 20.27 53.1352 19.2843 53.0685 18.2239C52.9748 16.7361 52.0304 15.4362 50.6443 14.8874C49.6564 14.4962 48.8741 13.7139 48.4829 12.726C47.9341 11.3399 46.6342 10.3955 45.1465 10.3018C44.086 10.2351 43.1003 9.73285 42.4229 8.91415C41.4727 7.76555 39.9446 7.26904 38.5006 7.63972C37.4714 7.90393 36.3788 7.73087 35.4816 7.16155ZM29.6033 16.6658C29.5125 15.2178 30.6782 13.9941 32.1485 13.9941H34.7984C36.2687 13.9941 37.4343 15.2178 37.3436 16.6658L36.5667 29.059L38.7716 16.7199C44.3233 18.7689 48.4149 23.9465 49.0162 30.1741C50.2867 31.2616 51.0052 32.4985 51.0052 33.8104C51.0052 38.1533 43.1322 41.674 33.4203 41.674C23.7085 41.674 15.8355 38.1533 15.8355 33.8104C15.8355 32.4591 16.5977 31.1874 17.9404 30.0765C18.576 23.8806 22.6682 18.7386 28.207 16.7082L30.3619 28.7679L29.6033 16.6658ZM48.6591 33.0964C45.0242 35.3265 39.5469 36.7461 33.4203 36.7461C27.2937 36.7461 21.8165 35.3265 18.1815 33.0964C21.2204 36.0301 26.9068 38.0043 33.4203 38.0043C39.9338 38.0043 45.6202 36.0301 48.6591 33.0964Z" fill="white"></path><rect x="1" y="49" width="64" height="17" rx="3" fill="#FF581B"></rect><path d="M8.75781 59.8903C8.75781 59.7058 8.76763 59.5364 8.78728 59.3821C8.8102 59.2244 8.84294 59.055 8.8855 58.8739H9.87264V59.2915C9.87264 59.523 9.88574 59.7276 9.91193 59.9054C9.9414 60.0832 9.98723 60.2342 10.0494 60.3583C10.1149 60.4791 10.2 60.5713 10.3048 60.6351C10.4129 60.6955 10.5438 60.7257 10.6977 60.7257C10.94 60.7257 11.125 60.6586 11.2527 60.5244C11.3804 60.3868 11.4442 60.1872 11.4442 59.9256C11.4442 59.7914 11.4344 59.6689 11.4147 59.5582C11.3984 59.4442 11.3673 59.3318 11.3214 59.2211C11.2789 59.1104 11.2199 58.9946 11.1446 58.8739C11.0693 58.7497 10.9727 58.6122 10.8549 58.4612L9.52886 56.8459C9.29313 56.5373 9.11141 56.227 8.98372 55.915C8.85604 55.5997 8.79219 55.2642 8.79219 54.9086C8.79219 54.6234 8.83475 54.3618 8.91988 54.1236C9.00828 53.8854 9.13433 53.6808 9.29804 53.5097C9.46174 53.3352 9.6631 53.201 9.90211 53.1071C10.1444 53.0098 10.4178 52.9612 10.7223 52.9612C11.0922 52.9612 11.4 53.0149 11.6456 53.1222C11.8944 53.2296 12.0925 53.3705 12.2398 53.5449C12.3871 53.7193 12.4903 53.9156 12.5492 54.1337C12.6114 54.3484 12.6425 54.5647 12.6425 54.7828C12.6425 54.9673 12.6278 55.1384 12.5983 55.2961C12.5721 55.4504 12.541 55.6215 12.505 55.8093H11.5228V55.4017C11.5228 54.9455 11.4589 54.5966 11.3312 54.3551C11.2036 54.1102 10.9957 53.9877 10.7075 53.9877C10.4685 53.9877 10.2901 54.0565 10.1722 54.194C10.0544 54.3282 9.99542 54.5094 9.99542 54.7375C9.99542 54.8583 10.0036 54.9673 10.02 55.0646C10.0396 55.1619 10.0658 55.2524 10.0986 55.3363C10.1346 55.4168 10.1771 55.4957 10.2262 55.5728C10.2754 55.65 10.331 55.7305 10.3932 55.8144L11.8715 57.646C12.1399 58.005 12.3462 58.3505 12.4903 58.6826C12.6343 59.0114 12.7064 59.3603 12.7064 59.7293C12.7064 60.0346 12.6589 60.3097 12.5639 60.5546C12.4723 60.7995 12.3397 61.0075 12.1661 61.1785C11.9926 61.3496 11.7831 61.4821 11.5375 61.5761C11.292 61.6667 11.0153 61.7119 10.7075 61.7119C10.3277 61.7119 10.0118 61.6599 9.75968 61.556C9.51085 61.452 9.31113 61.3144 9.16053 61.1433C9.01319 60.9722 8.90842 60.7777 8.84621 60.5596C8.78728 60.3415 8.75781 60.1185 8.75781 59.8903Z" fill="white"></path><path d="M14.7003 53.0367H16.1638L17.7157 61.6314H16.429L16.1982 60.0916H14.6659L14.4449 61.6314H13.1533L14.7003 53.0367ZM16.0508 59.1104L15.4615 54.8281H15.4075L14.8132 59.1104H16.0508Z" fill="white"></path><path d="M18.531 53.0367H21.7379V54.0632H19.803V56.6346H21.3205V57.6611H19.803V61.6314H18.531V53.0367Z" fill="white"></path><path d="M22.5876 53.0367H25.6963V54.0632H23.8596V56.6346H25.2789V57.6611H23.8596V60.6049H25.7454V61.6314H22.5876V53.0367Z" fill="white"></path><path d="M27.4398 54.0632H26.0892V53.0367H30.0574V54.0632H28.7118V61.6314H27.4398V54.0632Z" fill="white"></path><path d="M31.9138 58.7682L30.2244 53.0367H31.5062L32.5326 57.1479H32.5915L33.6082 53.0367H34.885L33.1858 58.7682V61.6314H31.9138V58.7682Z" fill="white"></path><path d="M37.7826 53.0367H40.9896V54.0632H39.0546V56.6346H40.5721V57.6611H39.0546V61.6314H37.7826V53.0367Z" fill="white"></path><path d="M41.8392 53.0367H43.1112V61.6314H41.8392V53.0367Z" fill="white"></path><path d="M44.5502 53.0367H45.9302C46.0873 53.0367 46.2592 53.0434 46.4459 53.0568C46.6358 53.0702 46.824 53.1038 47.0106 53.1574C47.2005 53.2078 47.3822 53.2849 47.5558 53.3889C47.7326 53.4929 47.8881 53.6355 48.0223 53.8166C48.1598 53.9978 48.2695 54.2259 48.3514 54.501C48.4332 54.7727 48.4742 55.1032 48.4742 55.4923V55.7087C48.4742 56.3629 48.3825 56.8963 48.1991 57.3089C48.0158 57.7182 47.7457 58.0134 47.3888 58.1945L48.7344 61.6314H47.3888L46.274 58.4159H45.7976V61.6314H44.5502V53.0367ZM45.9891 57.4749C46.2118 57.4749 46.4 57.4498 46.5539 57.3995C46.7078 57.3491 46.8322 57.2653 46.9271 57.1479C47.0221 57.0271 47.0909 56.8694 47.1334 56.6748C47.176 56.4769 47.1973 56.2337 47.1973 55.9452V55.2659C47.1973 55.0445 47.1776 54.8532 47.1383 54.6922C47.099 54.5312 47.0319 54.3987 46.937 54.2947C46.8453 54.1907 46.7225 54.1135 46.5686 54.0632C46.4148 54.0129 46.2216 53.9877 45.9891 53.9877H45.7976V57.4749H45.9891Z" fill="white"></path><path d="M49.3729 59.8903C49.3729 59.7058 49.3827 59.5364 49.4024 59.3821C49.4253 59.2244 49.458 59.055 49.5006 58.8739H50.4877V59.2915C50.4877 59.523 50.5008 59.7276 50.527 59.9054C50.5565 60.0832 50.6023 60.2342 50.6645 60.3583C50.73 60.4791 50.8151 60.5713 50.9199 60.6351C51.0279 60.6955 51.1589 60.7257 51.3128 60.7257C51.5551 60.7257 51.7401 60.6586 51.8678 60.5244C51.9954 60.3868 52.0593 60.1872 52.0593 59.9256C52.0593 59.7914 52.0495 59.6689 52.0298 59.5582C52.0134 59.4442 51.9823 59.3318 51.9365 59.2211C51.8939 59.1104 51.835 58.9946 51.7597 58.8739C51.6844 58.7497 51.5878 58.6122 51.4699 58.4612L50.1439 56.8459C49.9082 56.5373 49.7265 56.227 49.5988 55.915C49.4711 55.5997 49.4073 55.2642 49.4073 54.9086C49.4073 54.6234 49.4498 54.3618 49.535 54.1236C49.6234 53.8854 49.7494 53.6808 49.9131 53.5097C50.0768 53.3352 50.2782 53.201 50.5172 53.1071C50.7595 53.0098 51.0329 52.9612 51.3373 52.9612C51.7073 52.9612 52.0151 53.0149 52.2606 53.1222C52.5095 53.2296 52.7076 53.3705 52.8549 53.5449C53.0022 53.7193 53.1054 53.9156 53.1643 54.1337C53.2265 54.3484 53.2576 54.5647 53.2576 54.7828C53.2576 54.9673 53.2429 55.1384 53.2134 55.2961C53.1872 55.4504 53.1561 55.6215 53.1201 55.8093H52.1379V55.4017C52.1379 54.9455 52.074 54.5966 51.9463 54.3551C51.8186 54.1102 51.6107 53.9877 51.3226 53.9877C51.0836 53.9877 50.9052 54.0565 50.7873 54.194C50.6694 54.3282 50.6105 54.5094 50.6105 54.7375C50.6105 54.8583 50.6187 54.9673 50.6351 55.0646C50.6547 55.1619 50.6809 55.2524 50.7136 55.3363C50.7496 55.4168 50.7922 55.4957 50.8413 55.5728C50.8904 55.65 50.9461 55.7305 51.0083 55.8144L52.4866 57.646C52.755 58.005 52.9613 58.3505 53.1054 58.6826C53.2494 59.0114 53.3214 59.3603 53.3214 59.7293C53.3214 60.0346 53.274 60.3097 53.179 60.5546C53.0873 60.7995 52.9547 61.0075 52.7812 61.1785C52.6077 61.3496 52.3982 61.4821 52.1526 61.5761C51.907 61.6667 51.6304 61.7119 51.3226 61.7119C50.9428 61.7119 50.6269 61.6599 50.3748 61.556C50.1259 61.452 49.9262 61.3144 49.7756 61.1433C49.6283 60.9722 49.5235 60.7777 49.4613 60.5596C49.4024 60.3415 49.3729 60.1185 49.3729 59.8903Z" fill="white"></path><path d="M55.168 54.0632H53.8175V53.0367H57.7857V54.0632H56.44V61.6314H55.168V54.0632Z" fill="white"></path><rect x="76" y="48" width="66" height="19" rx="4" fill="white"></rect><circle cx="109" cy="30" r="30" fill="white"></circle><circle cx="109" cy="30" r="28.125" fill="#FF581B"></circle><path d="M109.505 42.4998C116.387 42.4998 121.965 36.9212 121.965 30.0397C121.965 28.2259 121.578 26.5025 120.881 24.9481L113.252 34.0401L113.28 34.0638L109.908 38.0828L99.8605 29.652L103.233 25.6331L109.233 30.6678L117.663 20.6211C115.477 18.7262 112.625 17.5796 109.505 17.5796C102.624 17.5796 97.0452 23.1582 97.0452 30.0397C97.0452 36.9212 102.624 42.4998 109.505 42.4998Z" fill="white"></path><path fill-rule="evenodd" clip-rule="evenodd" d="M111.584 7.48083C110.469 6.25639 108.542 6.25639 107.426 7.48083L105.576 9.51141C104.836 10.3237 103.691 10.6306 102.644 10.2971L100.027 9.46363C98.4482 8.96103 96.7795 9.92446 96.4256 11.5426L95.8387 14.2262C95.6039 15.2997 94.7655 16.1381 93.692 16.3729L91.0085 16.9598C89.3903 17.3137 88.4269 18.9824 88.9295 20.5607L89.763 23.1782C90.0964 24.2252 89.7895 25.3705 88.9772 26.1106L86.9466 27.9607C85.7222 29.0762 85.7222 31.0031 86.9466 32.1187L88.9772 33.9687C89.7895 34.7088 90.0964 35.8541 89.763 36.9011L88.9295 39.5186C88.4269 41.0969 89.3903 42.7656 91.0085 43.1195L93.692 43.7064C94.7655 43.9412 95.6039 44.7796 95.8387 45.8531L96.4256 48.5367C96.7795 50.1549 98.4482 51.1183 100.027 50.6157L102.644 49.7822C103.691 49.4488 104.836 49.7556 105.576 50.5679L107.426 52.5985C108.542 53.8229 110.469 53.8229 111.584 52.5985L113.435 50.5679C114.175 49.7556 115.32 49.4488 116.367 49.7822L118.984 50.6157C120.563 51.1183 122.231 50.1549 122.585 48.5367L123.172 45.8531C123.407 44.7796 124.245 43.9412 125.319 43.7064L128.002 43.1195C129.621 42.7656 130.584 41.0969 130.082 39.5186L129.248 36.9011C128.915 35.8541 129.221 34.7088 130.034 33.9687L132.064 32.1187C133.289 31.0031 133.289 29.0762 132.064 27.9607L130.034 26.1106C129.221 25.3705 128.915 24.2252 129.248 23.1782L130.082 20.5607C130.584 18.9824 129.621 17.3137 128.002 16.9598L125.319 16.3729C124.245 16.1381 123.407 15.2997 123.172 14.2262L122.585 11.5426C122.231 9.92446 120.563 8.96103 118.984 9.46363L116.367 10.2971C115.32 10.6306 114.175 10.3237 113.435 9.51141L111.584 7.48083ZM109.505 46.4345C118.56 46.4345 125.9 39.0943 125.9 30.0397C125.9 20.9851 118.56 13.6448 109.505 13.6448C100.451 13.6448 93.1105 20.9851 93.1105 30.0397C93.1105 39.0943 100.451 46.4345 109.505 46.4345Z" fill="white"></path><rect x="77" y="49" width="64" height="17" rx="3" fill="#FF581B"></rect><path d="M82.655 61.7199C82.4584 61.6829 82.2619 61.6123 82.0654 61.508C81.8689 61.4037 81.6913 61.2439 81.5327 61.0286C81.3741 60.8133 81.2448 60.534 81.1448 60.1909C81.0483 59.8444 81 59.4104 81 58.889V55.836C81 55.402 81.0345 55.032 81.1034 54.7258C81.1758 54.4163 81.2707 54.1573 81.3879 53.9487C81.5051 53.7368 81.6379 53.5685 81.7861 53.4441C81.9378 53.3196 82.0947 53.2254 82.2567 53.1615C82.4222 53.0942 82.586 53.0505 82.7481 53.0303C82.9101 53.0101 83.0601 53 83.198 53C83.329 53 83.4738 53.0101 83.6324 53.0303C83.7945 53.0471 83.9548 53.0875 84.1134 53.1514C84.2755 53.2119 84.4323 53.3045 84.584 53.4289C84.7357 53.55 84.8702 53.7166 84.9874 53.9285C85.1047 54.1371 85.1978 54.3978 85.2667 54.7107C85.3391 55.0202 85.3753 55.3953 85.3753 55.836V58.889C85.3753 59.3869 85.3271 59.8057 85.2305 60.1455C85.134 60.4819 85.0081 60.7578 84.853 60.9731C84.7013 61.1884 84.5306 61.3532 84.341 61.4676C84.1548 61.5786 83.9686 61.656 83.7824 61.6997V61.7754C83.7824 61.9403 83.8014 62.0731 83.8393 62.1741C83.8807 62.275 83.9393 62.3524 84.0151 62.4062C84.0944 62.4634 84.191 62.5004 84.3048 62.5172C84.422 62.5374 84.5565 62.5475 84.7082 62.5475C84.7564 62.5475 84.8047 62.5475 84.853 62.5475C84.9012 62.5475 84.9461 62.5458 84.9874 62.5424V63.2489C84.8185 63.3229 84.6599 63.3734 84.5116 63.4003C84.3634 63.4272 84.2065 63.4407 84.041 63.4407C83.9686 63.4407 83.8841 63.4356 83.7876 63.4255C83.691 63.4188 83.5911 63.3986 83.4876 63.365C83.3842 63.3347 83.2825 63.2893 83.1825 63.2287C83.0859 63.1715 82.998 63.0908 82.9187 62.9865C82.8394 62.8856 82.7756 62.7594 82.7274 62.608C82.6791 62.4567 82.655 62.2733 82.655 62.058V61.7199ZM83.198 60.7864C83.329 60.7864 83.4428 60.7645 83.5393 60.7208C83.6393 60.677 83.7204 60.6013 83.7824 60.4937C83.8479 60.386 83.8962 60.2447 83.9272 60.0698C83.9617 59.8915 83.9789 59.6678 83.9789 59.3986V55.4777C83.9789 55.2018 83.9617 54.9714 83.9272 54.7864C83.8962 54.6013 83.8479 54.4533 83.7824 54.3423C83.7204 54.2279 83.6393 54.1472 83.5393 54.1001C83.4428 54.053 83.329 54.0294 83.198 54.0294C83.0635 54.0294 82.9463 54.053 82.8463 54.1001C82.7463 54.1472 82.6636 54.2279 82.5981 54.3423C82.5326 54.4533 82.4826 54.6013 82.4481 54.7864C82.4171 54.9714 82.4016 55.2018 82.4016 55.4777V59.3986C82.4016 59.6678 82.4171 59.8915 82.4481 60.0698C82.4826 60.2447 82.5326 60.386 82.5981 60.4937C82.6636 60.6013 82.7463 60.677 82.8463 60.7208C82.9463 60.7645 83.0635 60.7864 83.198 60.7864Z" fill="white"></path><path d="M86.6631 53.0757H88.0129V59.3936C88.0129 59.6627 88.0267 59.8864 88.0543 60.0647C88.0819 60.243 88.125 60.386 88.1836 60.4937C88.2457 60.598 88.3232 60.6737 88.4163 60.7208C88.5129 60.7645 88.6266 60.7864 88.7577 60.7864C88.8887 60.7864 89.0025 60.7645 89.099 60.7208C89.199 60.6737 89.28 60.598 89.3421 60.4937C89.4076 60.386 89.4559 60.243 89.4869 60.0647C89.5214 59.8864 89.5386 59.6627 89.5386 59.3936V53.0757H90.8729V59.0454C90.8729 59.4659 90.8384 59.8259 90.7695 60.1253C90.7005 60.4247 90.6092 60.6753 90.4954 60.8772C90.3816 61.079 90.2506 61.2388 90.1023 61.3566C89.9575 61.4743 89.8058 61.5652 89.6472 61.6291C89.4921 61.6896 89.3369 61.7283 89.1818 61.7451C89.0266 61.762 88.8852 61.7704 88.7577 61.7704C88.6301 61.7704 88.4887 61.762 88.3336 61.7451C88.1819 61.7283 88.0284 61.6896 87.8733 61.6291C87.7181 61.5652 87.5682 61.4743 87.4233 61.3566C87.2785 61.2388 87.1492 61.079 87.0355 60.8772C86.9217 60.6753 86.8303 60.4264 86.7614 60.1303C86.6959 59.8309 86.6631 59.4693 86.6631 59.0454V53.0757Z" fill="white"></path><path d="M93.3243 53.0757H94.8655L96.4998 61.6947H95.1448L94.9017 60.1505H93.2881L93.0554 61.6947H91.6952L93.3243 53.0757ZM94.7466 59.1665L94.126 54.8722H94.0691L93.4433 59.1665H94.7466Z" fill="white"></path><path d="M97.3583 53.0757H98.6978V60.6652H100.523V61.6947H97.3583V53.0757Z" fill="white"></path><path d="M101.372 53.0757H102.711V61.6947H101.372V53.0757Z" fill="white"></path><path d="M105.044 54.1051H103.621V53.0757H107.8V54.1051H106.383V61.6947H105.044V54.1051Z" fill="white"></path><path d="M109.755 58.8234L107.976 53.0757H109.326L110.407 57.1985H110.469L111.539 53.0757H112.884L111.095 58.8234V61.6947H109.755V58.8234Z" fill="white"></path><path d="M115.935 53.0757H119.313V54.1051H117.275V56.6838H118.873V57.7132H117.275V61.6947H115.935V53.0757Z" fill="white"></path><path d="M120.207 53.0757H121.547V61.6947H120.207V53.0757Z" fill="white"></path><path d="M123.062 53.0757H124.515C124.681 53.0757 124.862 53.0824 125.058 53.0959C125.258 53.1093 125.457 53.143 125.653 53.1968C125.853 53.2473 126.044 53.3246 126.227 53.4289C126.413 53.5332 126.577 53.6762 126.719 53.8579C126.863 54.0395 126.979 54.2683 127.065 54.5442C127.151 54.8166 127.194 55.148 127.194 55.5383V55.7552C127.194 56.4113 127.098 56.9462 126.905 57.36C126.712 57.7704 126.427 58.0664 126.051 58.2481L127.468 61.6947H126.051L124.877 58.4701H124.376V61.6947H123.062V53.0757ZM124.577 57.5265C124.812 57.5265 125.01 57.5012 125.172 57.4508C125.334 57.4003 125.465 57.3162 125.565 57.1985C125.665 57.0774 125.738 56.9192 125.782 56.7241C125.827 56.5256 125.85 56.2817 125.85 55.9924V55.3112C125.85 55.0891 125.829 54.8974 125.788 54.7359C125.746 54.5744 125.676 54.4415 125.576 54.3373C125.479 54.233 125.35 54.1556 125.188 54.1051C125.026 54.0547 124.822 54.0294 124.577 54.0294H124.376V57.5265H124.577Z" fill="white"></path><path d="M128.141 59.9487C128.141 59.7636 128.151 59.5938 128.172 59.439C128.196 59.2809 128.23 59.111 128.275 58.9293H129.315V59.3482C129.315 59.5803 129.329 59.7855 129.356 59.9638C129.387 60.1421 129.435 60.2935 129.501 60.418C129.57 60.5391 129.66 60.6316 129.77 60.6955C129.884 60.7561 130.022 60.7864 130.184 60.7864C130.439 60.7864 130.634 60.7191 130.768 60.5845C130.902 60.4466 130.97 60.2464 130.97 59.984C130.97 59.8494 130.959 59.7266 130.939 59.6156C130.921 59.5012 130.889 59.3885 130.84 59.2775C130.796 59.1665 130.734 59.0504 130.654 58.9293C130.575 58.8049 130.473 58.6669 130.349 58.5155L128.953 56.8957C128.704 56.5862 128.513 56.275 128.379 55.9621C128.244 55.6459 128.177 55.3095 128.177 54.9529C128.177 54.6669 128.222 54.4045 128.311 54.1657C128.405 53.9268 128.537 53.7216 128.71 53.55C128.882 53.3751 129.094 53.2405 129.346 53.1463C129.601 53.0488 129.889 53 130.209 53C130.599 53 130.923 53.0538 131.182 53.1615C131.444 53.2691 131.652 53.4104 131.808 53.5854C131.963 53.7603 132.071 53.9571 132.133 54.1758C132.199 54.3911 132.232 54.6081 132.232 54.8267C132.232 55.0118 132.216 55.1833 132.185 55.3415C132.157 55.4962 132.125 55.6678 132.087 55.8562H131.052V55.4474C131.052 54.9899 130.985 54.64 130.851 54.3978C130.716 54.1522 130.497 54.0294 130.194 54.0294C129.942 54.0294 129.754 54.0984 129.63 54.2363C129.506 54.3709 129.444 54.5526 129.444 54.7813C129.444 54.9024 129.453 55.0118 129.47 55.1093C129.491 55.2069 129.518 55.2977 129.553 55.3818C129.591 55.4626 129.635 55.5416 129.687 55.619C129.739 55.6964 129.797 55.7771 129.863 55.8612L131.42 57.6981C131.702 58.058 131.92 58.4045 132.071 58.7376C132.223 59.0673 132.299 59.4171 132.299 59.7872C132.299 60.0933 132.249 60.3692 132.149 60.6148C132.052 60.8604 131.913 61.0689 131.73 61.2405C131.547 61.4121 131.327 61.545 131.068 61.6392C130.809 61.73 130.518 61.7754 130.194 61.7754C129.794 61.7754 129.461 61.7233 129.196 61.619C128.934 61.5147 128.723 61.3768 128.565 61.2052C128.41 61.0336 128.299 60.8385 128.234 60.6198C128.172 60.4012 128.141 60.1774 128.141 59.9487Z" fill="white"></path><path d="M134.243 54.1051H132.821V53.0757H137V54.1051H135.583V61.6947H134.243V54.1051Z" fill="white"></path><rect x="152" y="48" width="66" height="19" rx="4" fill="white"></rect><circle cx="185" cy="30" r="30" fill="white"></circle><circle cx="185" cy="30" r="28.125" fill="#FF581B"></circle><path d="M186.811 33.2659C186.811 34.0086 186.209 34.6107 185.466 34.6107C184.723 34.6107 184.121 34.0086 184.121 33.2659C184.121 32.5232 184.723 31.9211 185.466 31.9211C186.209 31.9211 186.811 32.5232 186.811 33.2659Z" fill="white"></path><path fill-rule="evenodd" clip-rule="evenodd" d="M185.466 53.4375C198.41 53.4375 208.903 42.9442 208.903 30C208.903 17.0558 198.41 6.5625 185.466 6.5625C172.522 6.5625 162.028 17.0558 162.028 30C162.028 42.9442 172.522 53.4375 185.466 53.4375ZM173.841 42.538C170.475 39.4154 168.368 34.9537 168.368 30C168.368 20.5571 176.023 12.9022 185.466 12.9022C194.909 12.9022 202.564 20.5571 202.564 30C202.564 35.0114 200.408 39.5193 196.972 42.6466L194.564 39.1045C196.895 36.775 198.337 33.5559 198.337 30C198.337 22.8913 192.574 17.1286 185.466 17.1286C178.357 17.1286 172.594 22.8913 172.594 30C172.594 33.4977 173.99 36.6695 176.254 38.9894L173.841 42.538ZM185.576 21.3859C184.331 21.3642 183.305 22.3554 183.283 23.5999L183.184 29.2584C181.793 30.0521 180.855 31.5495 180.855 33.2659C180.855 35.8123 182.919 37.8765 185.466 37.8765C188.012 37.8765 190.076 35.8123 190.076 33.2659C190.076 31.5272 189.114 30.0133 187.693 29.2278L187.79 23.6786C187.812 22.4341 186.82 21.4076 185.576 21.3859Z" fill="white"></path><rect x="153" y="49" width="64" height="17" rx="3" fill="#FF581B"></rect><path d="M160 59.984C160 59.798 160.011 59.6273 160.032 59.4717C160.057 59.3128 160.092 59.142 160.138 58.9595H161.204V59.3804C161.204 59.6137 161.218 59.82 161.247 59.9992C161.278 60.1784 161.328 60.3306 161.395 60.4557C161.466 60.5774 161.558 60.6704 161.671 60.7346C161.788 60.7955 161.929 60.8259 162.095 60.8259C162.357 60.8259 162.557 60.7583 162.695 60.623C162.833 60.4844 162.902 60.2832 162.902 60.0195C162.902 59.8842 162.891 59.7608 162.87 59.6492C162.852 59.5343 162.819 59.421 162.769 59.3094C162.723 59.1978 162.659 59.0812 162.578 58.9595C162.497 58.8344 162.392 58.6957 162.265 58.5436L160.833 56.9155C160.578 56.6044 160.382 56.2917 160.244 55.9772C160.106 55.6594 160.037 55.3212 160.037 54.9628C160.037 54.6754 160.083 54.4117 160.175 54.1716C160.271 53.9315 160.407 53.7253 160.584 53.5528C160.76 53.377 160.978 53.2418 161.236 53.1471C161.498 53.049 161.793 53 162.122 53C162.522 53 162.854 53.0541 163.119 53.1623C163.388 53.2705 163.602 53.4125 163.761 53.5883C163.92 53.7642 164.032 53.962 164.095 54.1817C164.162 54.3981 164.196 54.6162 164.196 54.836C164.196 55.022 164.18 55.1944 164.148 55.3534C164.12 55.5089 164.086 55.6813 164.048 55.8707H162.987V55.4599C162.987 55 162.918 54.6484 162.78 54.4049C162.642 54.1581 162.417 54.0347 162.106 54.0347C161.848 54.0347 161.655 54.104 161.528 54.2426C161.4 54.3779 161.337 54.5604 161.337 54.7904C161.337 54.9121 161.346 55.022 161.363 55.12C161.385 55.2181 161.413 55.3094 161.448 55.3939C161.487 55.4751 161.533 55.5545 161.586 55.6323C161.639 55.7101 161.699 55.7912 161.766 55.8758L163.363 57.7219C163.653 58.0837 163.876 58.432 164.032 58.7667C164.187 59.0981 164.265 59.4497 164.265 59.8217C164.265 60.1294 164.214 60.4066 164.111 60.6535C164.012 60.9003 163.869 61.1099 163.681 61.2824C163.494 61.4548 163.268 61.5884 163.002 61.6831C162.737 61.7744 162.438 61.82 162.106 61.82C161.696 61.82 161.354 61.7676 161.082 61.6628C160.813 61.558 160.598 61.4193 160.435 61.2469C160.276 61.0744 160.163 60.8783 160.095 60.6585C160.032 60.4388 160 60.2139 160 59.984Z" fill="white"></path><path d="M165.421 53.0761H166.795C166.969 53.0761 167.158 53.0845 167.363 53.1014C167.572 53.115 167.779 53.1505 167.984 53.2079C168.192 53.262 168.392 53.3466 168.583 53.4615C168.778 53.5765 168.949 53.7337 169.098 53.9332C169.246 54.1293 169.365 54.3762 169.453 54.6737C169.545 54.9713 169.591 55.3331 169.591 55.7591V56.0634C169.591 56.5266 169.549 56.9239 169.464 57.2553C169.382 57.5833 169.273 57.8606 169.135 58.0871C168.997 58.3103 168.836 58.4895 168.652 58.6247C168.472 58.76 168.282 58.8631 168.084 58.9341C167.89 59.0017 167.692 59.0474 167.49 59.071C167.292 59.0913 167.105 59.1015 166.928 59.1015H166.795V61.7389H165.421V53.0761ZM166.864 58.1378C167.112 58.1378 167.321 58.104 167.49 58.0364C167.66 57.9654 167.794 57.8572 167.893 57.7118C167.996 57.563 168.069 57.3737 168.111 57.1437C168.157 56.9104 168.18 56.6315 168.18 56.3069V55.5258C168.18 55.2688 168.16 55.0473 168.122 54.8614C168.083 54.672 168.012 54.5165 167.909 54.3948C167.81 54.273 167.676 54.1834 167.506 54.126C167.336 54.0651 167.123 54.0347 166.864 54.0347H166.795V58.1378H166.864Z" fill="white"></path><path d="M170.631 53.0761H173.989V54.1107H172.005V56.7025H173.538V57.7371H172.005V60.7042H174.042V61.7389H170.631V53.0761Z" fill="white"></path><path d="M175.034 53.0761H178.392V54.1107H176.408V56.7025H177.941V57.7371H176.408V60.7042H178.445V61.7389H175.034V53.0761Z" fill="white"></path><path d="M179.437 53.0761H180.864C181.079 53.0761 181.302 53.0828 181.532 53.0964C181.765 53.1065 181.992 53.142 182.211 53.2029C182.434 53.2637 182.642 53.3584 182.837 53.4869C183.035 53.612 183.208 53.7895 183.357 54.0194C183.505 54.246 183.622 54.5334 183.707 54.8817C183.795 55.2266 183.84 55.6492 183.84 56.1496V58.6653C183.84 59.1657 183.795 59.5901 183.707 59.9383C183.622 60.2866 183.505 60.574 183.357 60.8006C183.208 61.0271 183.035 61.2046 182.837 61.3331C182.642 61.4582 182.434 61.5512 182.211 61.6121C181.992 61.6729 181.765 61.7101 181.532 61.7236C181.302 61.7338 181.079 61.7389 180.864 61.7389H179.437V53.0761ZM181.161 60.8208C181.408 60.8208 181.612 60.7904 181.771 60.7295C181.933 60.6687 182.061 60.5622 182.153 60.41C182.248 60.2545 182.314 60.0448 182.349 59.7811C182.384 59.514 182.402 59.1776 182.402 58.7718V56.0837C182.402 55.678 182.384 55.3432 182.349 55.0795C182.314 54.8124 182.248 54.6027 182.153 54.4506C182.061 54.295 181.933 54.1868 181.771 54.126C181.612 54.0651 181.408 54.0347 181.161 54.0347H180.811V60.8208H181.161Z" fill="white"></path><path d="M187.394 53.0761H190.858V54.1107H188.768V56.7025H190.407V57.7371H188.768V61.7389H187.394V53.0761Z" fill="white"></path><path d="M191.775 53.0761H193.149V61.7389H191.775V53.0761Z" fill="white"></path><path d="M194.704 53.0761H196.194C196.364 53.0761 196.55 53.0828 196.751 53.0964C196.956 53.1099 197.16 53.1437 197.361 53.1978C197.566 53.2485 197.763 53.3263 197.95 53.4311C198.141 53.5359 198.309 53.6796 198.454 53.8622C198.603 54.0448 198.721 54.2747 198.81 54.552C198.898 54.8259 198.942 55.1589 198.942 55.5512V55.7692C198.942 56.4286 198.843 56.9662 198.645 57.3821C198.447 57.7946 198.155 58.0922 197.77 58.2748L199.223 61.7389H197.77L196.566 58.4979H196.051V61.7389H194.704V53.0761ZM196.258 57.5495C196.498 57.5495 196.702 57.5241 196.868 57.4734C197.034 57.4227 197.169 57.3381 197.271 57.2198C197.374 57.0981 197.448 56.9392 197.494 56.743C197.54 56.5436 197.563 56.2984 197.563 56.0076V55.3229C197.563 55.0998 197.542 54.907 197.499 54.7447C197.457 54.5824 197.384 54.4489 197.282 54.344C197.183 54.2392 197.05 54.1615 196.884 54.1107C196.718 54.06 196.509 54.0347 196.258 54.0347H196.051V57.5495H196.258Z" fill="white"></path><path d="M199.913 59.984C199.913 59.798 199.924 59.6273 199.945 59.4717C199.97 59.3128 200.005 59.142 200.051 58.9595H201.117V59.3804C201.117 59.6137 201.131 59.82 201.16 59.9992C201.191 60.1784 201.241 60.3306 201.308 60.4557C201.379 60.5774 201.471 60.6704 201.584 60.7346C201.701 60.7955 201.842 60.8259 202.008 60.8259C202.27 60.8259 202.47 60.7583 202.608 60.623C202.746 60.4844 202.815 60.2832 202.815 60.0195C202.815 59.8842 202.804 59.7608 202.783 59.6492C202.765 59.5343 202.732 59.421 202.682 59.3094C202.636 59.1978 202.572 59.0812 202.491 58.9595C202.41 58.8344 202.305 58.6957 202.178 58.5436L200.746 56.9155C200.491 56.6044 200.295 56.2917 200.157 55.9772C200.019 55.6594 199.95 55.3212 199.95 54.9628C199.95 54.6754 199.996 54.4117 200.088 54.1716C200.184 53.9315 200.32 53.7253 200.496 53.5528C200.673 53.377 200.891 53.2418 201.149 53.1471C201.411 53.049 201.706 53 202.035 53C202.434 53 202.767 53.0541 203.032 53.1623C203.301 53.2705 203.515 53.4125 203.674 53.5883C203.833 53.7642 203.945 53.962 204.008 54.1817C204.075 54.3981 204.109 54.6162 204.109 54.836C204.109 55.022 204.093 55.1944 204.061 55.3534C204.033 55.5089 203.999 55.6813 203.96 55.8707H202.9V55.4599C202.9 55 202.831 54.6484 202.693 54.4049C202.555 54.1581 202.33 54.0347 202.019 54.0347C201.761 54.0347 201.568 54.104 201.441 54.2426C201.313 54.3779 201.25 54.5604 201.25 54.7904C201.25 54.9121 201.259 55.022 201.276 55.12C201.298 55.2181 201.326 55.3094 201.361 55.3939C201.4 55.4751 201.446 55.5545 201.499 55.6323C201.552 55.7101 201.612 55.7912 201.679 55.8758L203.276 57.7219C203.566 58.0837 203.789 58.432 203.945 58.7667C204.1 59.0981 204.178 59.4497 204.178 59.8217C204.178 60.1294 204.127 60.4066 204.024 60.6535C203.925 60.9003 203.782 61.1099 203.594 61.2824C203.407 61.4548 203.181 61.5884 202.915 61.6831C202.65 61.7744 202.351 61.82 202.019 61.82C201.609 61.82 201.267 61.7676 200.995 61.6628C200.726 61.558 200.511 61.4193 200.348 61.2469C200.189 61.0744 200.076 60.8783 200.008 60.6585C199.945 60.4388 199.913 60.2139 199.913 59.984Z" fill="white"></path><path d="M206.173 54.1107H204.714V53.0761H209V54.1107H207.546V61.7389H206.173V54.1107Z" fill="white"></path></svg>